{
  "title": "American.Psycho.2000.1080p.BrRip.x264.YIFY",
  "uid": 7883584,
  "size": 1500356678,
  "categoryP": "video",
  "categoryS": "hd___movies",
  "magnet": "?xt=urn:btih:70db29b66672e8676bffc9ea50b4e3f9232f14e2&amp;dn=American.Psycho.2000.1080p.BrRip.x264.YIFY&amp;tr=udp%3A%2F%2Ftracker.openbittorrent.com%3A80&amp;tr=udp%3A%2F%2Fopen.demonii.com%3A1337&amp;tr=udp%3A%2F%2Ftracker.coppersurfer.tk%3A6969&amp;tr=udp%3A%2F%2Fexodus.desync.com%3A6969",
  "seeders": 211,
  "leechers": 16,
  "uploader": "dafk",
  "files": -1,
  "time": 1354555669,
  "description": "[info]\nThis is from http://www.yify-torrents.org \nI am not YIFY. I'm just uploading it cause it wasn't on the pirate bay.\n\n[video]\nFormat                         : AVC\nFormat/Info                    : Advanced Video Codec\nFormat profile                 : &lt;a class=&quot;__cf_email__&quot; href=&quot;/cdn-cgi/l/email-protection&quot; data-cfemail=&quot;d098b9b7b8909ce4fee0&quot;&gt;[email&amp;#160;protected]&lt;/a&gt;&lt;script cf-hash='f9e31' type=&quot;text/javascript&quot;&gt;\n/* &lt;![CDATA[ */!function(){try{var t=&quot;currentScript&quot;in document?document.currentScript:function(){for(var t=document.getElementsByTagName(&quot;script&quot;),e=t.length;e--;)if(t[e].getAttribute(&quot;cf-hash&quot;))return t[e]}();if(t&amp;&amp;t.previousSibling){var e,r,n,i,c=t.previousSibling,a=c.getAttribute(&quot;data-cfemail&quot;);if(a){for(e=&quot;&quot;,r=parseInt(a.substr(0,2),16),n=2;a.length-n;n+=2)i=parseInt(a.substr(n,2),16)^r,e+=String.fromCharCode(i);e=document.createTextNode(e),c.parentNode.replaceChild(e,c)}}}catch(u){}}();/* ]]&gt; */&lt;/script&gt;\nFormat settings, CABAC         : Yes\nFormat settings, ReFrames      : 5 frames\nCodec ID                       : avc1\nCodec ID/Info                  : Advanced Video Coding\nDuration                       : 1h 42mn\nBit rate                       : 1 862 Kbps\nMaximum bit rate               : 12.1 Mbps\nWidth                          : 1 920 pixels\nHeight                         : 816 pixels\nDisplay aspect ratio           : 2.35:1\nFrame rate mode                : Constant\nFrame rate                     : 23.976 fps\nColor space                    : YUV\nChroma subsampling             : 4:2:0\nBit depth                      : 8 bits\nScan type                      : Progressive\nBits/(Pixel*Frame)             : 0.050\nStream size                    : 1.33 GiB (95%)\n\n[audio]\nFormat                         : AAC\nFormat/Info                    : Advanced Audio Codec\nFormat profile                 : LC\nCodec ID                       : 40\nDuration                       : 1h 42mn\nBit rate mode                  : Variable\nBit rate                       : 96.0 Kbps\nMaximum bit rate               : 153 Kbps\nChannel(s)                     : 2 channels\nChannel positions              : Front: L R\nSampling rate                  : 48.0 KHz\nCompression mode               : Lossy\nStream size                    : 70.1 MiB (5%)",
  "parsed": {
    "xt": "urn:btih:70db29b66672e8676bffc9ea50b4e3f9232f14e2",
    "dn": "American.Psycho.2000.1080p.BrRip.x264.YIFY",
    "tr": [
      "udp://exodus.desync.com:6969",
      "udp://open.demonii.com:1337",
      "udp://tracker.coppersurfer.tk:6969",
      "udp://tracker.openbittorrent.com:80"
    ],
    "infoHash": "70db29b66672e8676bffc9ea50b4e3f9232f14e2",
    "infoHashBuffer": {
      "type": "Buffer",
      "data": [
        112,
        219,
        41,
        182,
        102,
        114,
        232,
        103,
        107,
        255,
        201,
        234,
        80,
        180,
        227,
        249,
        35,
        47,
        20,
        226
      ]
    },
    "name": "American.Psycho.2000.1080p.BrRip.x264.YIFY",
    "announce": [
      "udp://exodus.desync.com:6969",
      "udp://open.demonii.com:1337",
      "udp://tracker.coppersurfer.tk:6969",
      "udp://tracker.openbittorrent.com:80"
    ],
    "urlList": []
  },
  "previous": 227,
  "peers": 97,
  "last_updated": "2016-12-25T04:26:35.338Z"
}